<svg width="105" height="22" viewBox="0 0 105 22" fill="none" xmlns="http://www.w3.org/2000/svg">
<path d="M24.2176 1.02083H28.6876L22.6049 21.4375H18.7856L14.3438 10.0042L10.0718 21.4375H6.25243L0 1.02083H4.55494L8.43088 14.5833L13.6365 1.225H15.0794L20.4265 14.5833L24.2176 1.02083Z" fill="#8C30F5"/>
<path d="M42.2156 5.65833H45.2994V21.4083H42.0459L41.7064 20.0083C40.3107 21.2527 38.6603 21.875 36.7554 21.875C34.4543 21.875 32.5399 21.0875 31.0122 19.5125C29.5033 17.918 28.7488 15.925 28.7488 13.5333C28.7488 11.1611 29.5033 9.18749 31.0122 7.61249C32.5399 6.03749 34.4543 5.24999 36.7554 5.24999C38.698 5.24999 40.3672 5.89166 41.763 7.17499L42.2156 5.65833ZM34.096 16.625C34.8881 17.4416 35.8783 17.85 37.0666 17.85C38.2737 17.85 39.2733 17.4416 40.0655 16.625C40.8576 15.8083 41.2537 14.7778 41.2537 13.5333C41.2537 12.2889 40.8576 11.2583 40.0655 10.4417C39.2733 9.62498 38.2831 9.21665 37.0949 9.21665C36.3027 9.21665 35.586 9.4111 34.9447 9.79998C34.3223 10.1694 33.8319 10.6847 33.4735 11.3458C33.1152 11.9875 32.936 12.7166 32.936 13.5333C32.936 14.7778 33.3226 15.8083 34.096 16.625Z" fill="#8C30F5"/>
<path d="M57.5901 5.24999C59.91 5.24999 61.8244 6.03749 63.3333 7.61249C64.861 9.18749 65.6249 11.1708 65.6249 13.5625C65.6249 15.9541 64.861 17.9375 63.3333 19.5125C61.8244 21.0875 59.91 21.875 57.5901 21.875C55.7606 21.875 54.1668 21.2916 52.8088 20.125L52.3279 21.4375H49.2724V0H53.4029V6.53332C54.6289 5.67777 56.0246 5.24999 57.5901 5.24999ZM54.28 16.625C55.0721 17.4416 56.0624 17.85 57.2506 17.85C58.4577 17.85 59.4479 17.4416 60.2212 16.625C61.0134 15.8083 61.4094 14.7875 61.4094 13.5625C61.4094 12.7458 61.2303 12.0069 60.8719 11.3458C60.5324 10.6847 60.042 10.1694 59.4008 9.79998C58.7595 9.43054 58.0428 9.24582 57.2506 9.24582C56.4773 9.24582 55.77 9.43054 55.1287 9.79998C54.4875 10.1694 53.9876 10.6847 53.6293 11.3458C53.2709 12.0069 53.0917 12.7458 53.0917 13.5625C53.0917 14.7875 53.4878 15.8083 54.28 16.625Z" fill="#8C30F5"/>
<path d="M89.6308 0H89.3494C88.2727 0 87.3999 0.872838 87.3999 1.94954C87.3999 3.02624 88.2727 3.89908 89.3494 3.89908H89.6308C90.7075 3.89908 91.5804 3.02624 91.5804 1.94954C91.5804 0.872838 90.7075 0 89.6308 0Z" fill="#FE9A22"/>
<path d="M76.2307 5.53322C78.5786 5.53322 80.5161 6.3073 82.0432 7.85547C83.5894 9.40363 84.3625 11.3532 84.3625 13.7041C84.3625 16.055 83.5894 18.0045 82.0432 19.5527C80.5161 21.1009 78.5786 21.8749 76.2307 21.8749C74.3791 21.8749 72.7661 21.3015 71.3917 20.1548L70.9049 21.4449H67.8125V0.372681H71.993V6.79469C73.2337 5.95371 74.6463 5.53322 76.2307 5.53322ZM72.8806 16.7144C73.6823 17.5171 74.6845 17.9185 75.8871 17.9185C77.1088 17.9185 78.1109 17.5171 78.8936 16.7144C79.6953 15.9116 80.0962 14.9082 80.0962 13.7041C80.0962 12.9013 79.9148 12.175 79.5521 11.5252C79.2085 10.8753 78.7122 10.3688 78.0632 10.0057C77.4142 9.64254 76.6888 9.46097 75.8871 9.46097C75.1044 9.46097 74.3886 9.64254 73.7396 10.0057C73.0906 10.3688 72.5847 10.8753 72.222 11.5252C71.8593 12.175 71.678 12.9013 71.678 13.7041C71.678 14.9082 72.0789 15.9116 72.8806 16.7144Z" fill="#FE9A22"/>
<path d="M87.3581 21.4449V5.96327H91.5385V21.4449H87.3581Z" fill="#FE9A22"/>
<path d="M103.11 17.7178H105V21.4449H102.051C100.924 21.4449 99.9414 21.2251 99.1015 20.7855C98.2807 20.3459 97.6508 19.7152 97.2117 18.8933C96.7727 18.0523 96.5531 17.0584 96.5531 15.9116V9.31762H93.7471V8.42886L99.8746 1.92084H100.648V5.96327H104.914V9.31762H100.734V15.3669C100.734 16.1123 100.934 16.6953 101.335 17.1158C101.755 17.5171 102.347 17.7178 103.11 17.7178Z" fill="#FE9A22"/>
</svg>
