<svg height="100%"
    width="100%"
    preserveAspectRatio="none meet" viewBox="0 0 320 715" fill="none" xmlns="http://www.w3.org/2000/svg">
<mask id="mask0" mask-type="alpha" maskUnits="userSpaceOnUse" x="0" y="0" width="100%" height="100%">
<rect width="100%" height="100%" rx="16" fill="#C4C4C4"/>
</mask>
<g mask="url(#mask0)">
<rect width="100%" height="100%" rx="16" fill="#8C30F5"/>
<path opacity="0.15" d="M348.125 235.073C258.022 174.499 133.849 245.284 35.4401 197.346C-15.7623 172.404 -26.146 149.897 -62.8886 112.69C-86.4555 88.825 -88.7018 84.6704 -111.07 67.6012C-133.437 50.532 -174 30.7942 -174 30.7942V-31.7778H885V385.062H632.295C632.295 385.062 497.323 387.03 432.688 335.372C393.376 303.954 394.25 266.082 348.125 235.073Z" fill="white"/>
<path opacity="0.15" d="M384.618 215.292C294.43 154.752 170.14 241.131 71.6379 193.221C20.3871 168.293 -6.44299 79.9507 -21.3703 53.8429C-29.5496 39.5373 -42.0388 26.6623 -62.3246 16.6483C-82.6103 6.6344 -138 11.1305 -138 11.1305V-51.4055H922V339.036H684.804C684.804 339.036 518.472 344.043 464.34 308.176C417.097 276.875 430.786 246.283 384.618 215.292Z" fill="white"/>
</g>
</svg>
